<svg width="476" height="144" viewBox="0 0 476 144" fill="none" xmlns="http://www.w3.org/2000/svg">
<g clip-path="url(#clip0_404_601)">
<path d="M153.446 84.4178C151.706 84.4178 150.035 84.173 148.425 83.6886C146.811 83.2043 145.535 82.5532 144.592 81.7303L146.029 78.5011C146.946 79.2251 148.071 79.8136 149.404 80.272C150.748 80.7303 152.097 80.9595 153.446 80.9595C155.113 80.9595 156.352 80.6991 157.175 80.1678C158.008 79.6261 158.425 78.9178 158.425 78.0428C158.425 77.4074 158.186 76.8761 157.717 76.4595C157.258 76.0428 156.675 75.7199 155.967 75.4803C155.269 75.2459 154.311 74.9751 153.092 74.6678C151.383 74.2668 149.993 73.8657 148.925 73.4595C147.868 73.0428 146.956 72.4074 146.196 71.5428C145.446 70.6834 145.071 69.5116 145.071 68.022C145.071 66.7876 145.404 65.6626 146.071 64.647C146.748 63.6366 147.769 62.8293 149.133 62.2303C150.493 61.6366 152.154 61.3345 154.113 61.3345C155.488 61.3345 156.831 61.5116 158.154 61.8553C159.488 62.1886 160.633 62.6782 161.592 63.3136L160.279 66.5636C159.29 65.9803 158.264 65.5428 157.196 65.2511C156.123 64.9491 155.092 64.7928 154.092 64.7928C152.436 64.7928 151.206 65.0741 150.404 65.6261C149.613 66.1834 149.217 66.9178 149.217 67.8345C149.217 68.4751 149.446 69.0011 149.904 69.4178C150.363 69.8241 150.946 70.1418 151.654 70.3761C152.363 70.6157 153.321 70.8761 154.529 71.1678C156.196 71.5584 157.561 71.9595 158.633 72.3761C159.701 72.7928 160.618 73.4334 161.383 74.2928C162.144 75.1418 162.529 76.2928 162.529 77.7511C162.529 78.9907 162.186 80.1157 161.508 81.1261C160.842 82.1261 159.821 82.9282 158.446 83.522C157.081 84.1157 155.415 84.4178 153.446 84.4178Z" fill="#FDC506"/>
<path d="M179.484 84.4178C176.385 84.4178 173.969 83.5532 172.234 81.8136C170.51 80.0636 169.651 77.5636 169.651 74.3136V61.647H173.818V74.1678C173.818 78.5741 175.719 80.772 179.526 80.772C183.302 80.772 185.193 78.5741 185.193 74.1678V61.647H189.318V74.3136C189.318 77.5636 188.453 80.0636 186.734 81.8136C185.01 83.5532 182.594 84.4178 179.484 84.4178Z" fill="#FDC506"/>
<path d="M207.55 61.647C209.493 61.647 211.185 61.9699 212.633 62.6053C214.076 63.2459 215.18 64.1678 215.946 65.3761C216.722 66.5741 217.112 67.9907 217.112 69.6261C217.112 71.2668 216.722 72.6886 215.946 73.897C215.18 75.1053 214.076 76.0324 212.633 76.6678C211.185 77.3084 209.493 77.6261 207.55 77.6261H202.487V84.1053H198.321V61.647H207.55ZM207.362 74.1053C209.18 74.1053 210.555 73.7251 211.487 72.9595C212.43 72.1834 212.904 71.0741 212.904 69.6261C212.904 68.1991 212.43 67.1001 211.487 66.3345C210.555 65.5584 209.18 65.1678 207.362 65.1678H202.487V74.1053H207.362Z" fill="#FDC506"/>
<path d="M241.617 80.6053V84.1053H224.783V61.647H241.179V65.147H228.95V70.9803H239.783V74.4178H228.95V80.6053H241.617Z" fill="#FDC506"/>
<path d="M264.136 84.1053L259.553 77.522C259.355 77.5532 259.063 77.5636 258.678 77.5636H253.615V84.1053H249.449V61.647H258.678C260.621 61.647 262.313 61.9699 263.761 62.6053C265.204 63.2459 266.308 64.1678 267.074 65.3761C267.85 66.5741 268.24 67.9907 268.24 69.6261C268.24 71.3241 267.829 72.7824 267.011 74.0011C266.188 75.2251 265.011 76.1366 263.47 76.7303L268.636 84.1053H264.136ZM264.032 69.6261C264.032 68.1991 263.558 67.1001 262.615 66.3345C261.683 65.5584 260.308 65.1678 258.49 65.1678H253.615V74.1261H258.49C260.308 74.1261 261.683 73.7407 262.615 72.9595C263.558 72.1834 264.032 71.0741 264.032 69.6261Z" fill="#FDC506"/>
<path d="M280.613 65.1678H273.175V61.647H292.238V65.1678H284.8V84.1053H280.613V65.1678Z" fill="#FDC506"/>
<path d="M309.035 84.4178C306.754 84.4178 304.692 83.9282 302.848 82.9386C301.015 81.9386 299.567 80.5584 298.515 78.7928C297.473 77.0324 296.952 75.0584 296.952 72.8761C296.952 70.6991 297.473 68.7251 298.515 66.9595C299.567 65.1991 301.015 63.8241 302.848 62.8345C304.692 61.8345 306.754 61.3345 309.035 61.3345C311.327 61.3345 313.39 61.8345 315.223 62.8345C317.067 63.8241 318.515 65.1886 319.556 66.9386C320.608 68.6886 321.14 70.6678 321.14 72.8761C321.14 75.0845 320.608 77.0636 319.556 78.8136C318.515 80.5636 317.067 81.9386 315.223 82.9386C313.39 83.9282 311.327 84.4178 309.035 84.4178ZM309.035 80.772C310.535 80.772 311.879 80.4386 313.077 79.772C314.285 79.0949 315.228 78.147 315.91 76.9386C316.588 75.7303 316.931 74.3761 316.931 72.8761C316.931 71.3761 316.588 70.022 315.91 68.8136C315.228 67.6053 314.285 66.6678 313.077 66.0011C311.879 65.3241 310.535 64.9803 309.035 64.9803C307.546 64.9803 306.202 65.3241 304.994 66.0011C303.796 66.6678 302.853 67.6053 302.16 68.8136C301.478 70.022 301.14 71.3761 301.14 72.8761C301.14 74.3761 301.478 75.7303 302.16 76.9386C302.853 78.147 303.796 79.0949 304.994 79.772C306.202 80.4386 307.546 80.772 309.035 80.772Z" fill="#FDC506"/>
<path d="M338.385 84.4178C335.286 84.4178 332.869 83.5532 331.135 81.8136C329.411 80.0636 328.551 77.5636 328.551 74.3136V61.647H332.718V74.1678C332.718 78.5741 334.619 80.772 338.426 80.772C342.202 80.772 344.093 78.5741 344.093 74.1678V61.647H348.218V74.3136C348.218 77.5636 347.353 80.0636 345.635 81.8136C343.911 83.5532 341.494 84.4178 338.385 84.4178Z" fill="#FDC506"/>
<path d="M371.909 84.1053L367.325 77.522C367.127 77.5532 366.836 77.5636 366.45 77.5636H361.388V84.1053H357.221V61.647H366.45C368.393 61.647 370.086 61.9699 371.534 62.6053C372.976 63.2459 374.081 64.1678 374.846 65.3761C375.622 66.5741 376.013 67.9907 376.013 69.6261C376.013 71.3241 375.601 72.7824 374.784 74.0011C373.961 75.2251 372.784 76.1366 371.242 76.7303L376.409 84.1053H371.909ZM371.805 69.6261C371.805 68.1991 371.331 67.1001 370.388 66.3345C369.456 65.5584 368.081 65.1678 366.263 65.1678H361.388V74.1261H366.263C368.081 74.1261 369.456 73.7407 370.388 72.9595C371.331 72.1834 371.805 71.0741 371.805 69.6261Z" fill="#FDC506"/>
<path d="M384.739 84.3346C384.015 84.3346 383.396 84.0846 382.885 83.5846C382.369 83.0741 382.114 82.4335 382.114 81.6679C382.114 80.8762 382.364 80.2408 382.864 79.7512C383.364 79.2512 383.989 79.0012 384.739 79.0012C385.489 79.0012 386.114 79.2512 386.614 79.7512C387.114 80.2408 387.364 80.8762 387.364 81.6679C387.364 82.4335 387.104 83.0741 386.593 83.5846C386.078 84.0846 385.458 84.3346 384.739 84.3346Z" fill="#FDC506"/>
<path d="M404.492 84.4178C401.393 84.4178 398.976 83.5532 397.242 81.8136C395.518 80.0636 394.659 77.5636 394.659 74.3136V61.647H398.825V74.1678C398.825 78.5741 400.726 80.772 404.534 80.772C408.31 80.772 410.2 78.5741 410.2 74.1678V61.647H414.325V74.3136C414.325 77.5636 413.461 80.0636 411.742 81.8136C410.018 83.5532 407.601 84.4178 404.492 84.4178Z" fill="#FDC506"/>
<path d="M440.787 80.5845V84.1053H421.621V81.3136L434.85 65.1678H421.85V61.647H440.35V64.4386L427.141 80.5845H440.787Z" fill="#FDC506"/>
<path d="M28.1094 52.5209C25.7448 42.5365 31.9115 32.5261 41.8646 30.1823L95.7813 17.4844C80.2865 9.53128 61.4323 8.41149 44.1667 16.2448C16.0625 28.9896 2.31251 61.7032 12.8229 90.8021C15.2136 97.4115 18.6302 103.323 22.8229 108.432L76.0052 79.8907L39.349 65.4896C33.7083 63.2709 29.5156 58.4271 28.1094 52.5209Z" fill="#FDC506"/>
<mask id="mask0_404_601" style="mask-type:luminance" maskUnits="userSpaceOnUse" x="93" y="8" width="42" height="27">
<path d="M93.3335 8H134.667V34.6667H93.3335V8Z" fill="white"/>
</mask>
<g mask="url(#mask0_404_601)">
<mask id="mask1_404_601" style="mask-type:luminance" maskUnits="userSpaceOnUse" x="92" y="4" width="42" height="34">
<path d="M99.0731 4.00525L133.542 14.3959L126.615 37.375L92.146 26.9844L99.0731 4.00525Z" fill="white"/>
</mask>
<g mask="url(#mask1_404_601)">
<mask id="mask2_404_601" style="mask-type:luminance" maskUnits="userSpaceOnUse" x="92" y="4" width="42" height="34">
<path d="M133.719 14.4479L99.2503 4.0625L92.3232 27.0417L126.792 37.4271L133.719 14.4479Z" fill="white"/>
</mask>
<g mask="url(#mask2_404_601)">
<path d="M122.49 21.0104C123.094 20.401 124.688 19.9635 125.537 19.6875C127.287 19.125 129.896 18.2968 131.37 17.276C131.844 16.9427 132.86 16.0833 133.167 15.6145C133.318 15.3854 133.49 15 133.354 14.7395C133.115 14.2812 132.266 14.1927 131.833 14.0468L131.182 13.8489C129.531 13.4687 127.406 14.2187 125.875 14.7864L124.823 15.1145L121.474 16.2968L119.354 17.0312C119.037 17.1406 118.62 17.3125 118.281 17.2916C117.979 17.276 117.656 17.0885 117.38 16.9635C117.604 16.8125 117.849 16.6823 117.995 16.4479C118.328 15.8958 118.011 14.9739 117.552 14.7552C117.073 14.526 115.568 15.0729 115.094 15.2916C114.641 15.5 114.438 15.6875 113.938 15.4791L110.552 13.8125L102.521 9.68225L100.458 8.59892C100.068 8.39059 99.5575 8.10413 99.1043 8.11975C98.6668 8.13538 98.297 8.34892 97.9585 8.60413L102.281 11.8125L102.078 12.151L103.531 13.2916L103.328 13.6302C103.557 13.625 103.682 13.6041 103.901 13.7135L105.745 15.2031C106.057 15.4531 106.396 15.625 106.386 16.0573C107.25 16.1979 107.104 16.4531 107.74 16.802C108.542 17.2448 108.974 16.8958 109.61 17.927L109.979 18.0416L109.474 18.3906L109.938 18.8281L109.735 19.1666C110.37 19.3177 110.318 19.5104 110.813 19.8958L110.761 20.0781L106.865 21.4218C106.542 21.5364 105.495 21.9218 105.214 21.9218C104.86 21.9218 104.396 21.5208 104.104 21.3125L102.203 20.0052C101.932 19.8125 101.505 19.4687 101.182 19.427C100.854 19.3906 99.9637 19.6666 99.8335 19.9948C99.7658 20.1666 99.8335 20.4323 99.87 20.6041L100.214 22.3073L96.8543 20.8698C95.9377 20.4635 95.37 20 94.4272 20.6666C94.8856 21.0104 95.1356 21.0416 95.4481 21.5729L96.7241 22.6302L99.7762 25.0833L98.9845 26.0468C99.297 26.2448 99.5158 26.3333 99.8856 26.3698C100.151 26.401 100.526 26.3385 100.745 26.5C100.906 26.6198 101.245 27.1927 101.37 27.3958L102.583 29.3229C102.844 29.7291 103.063 30.2708 103.62 30.1927C104.443 30.0729 104.333 29.6406 104.375 28.9739L104.563 26.427C104.656 25.901 104.964 25.9218 105.422 25.8698L107.714 25.5468C108.417 25.4218 109.516 25.1666 110.188 24.9427C111.224 24.6041 111.787 24.2812 112.896 24.2291C113.229 24.2135 114.083 24.0677 114.318 24.1614C114.589 24.2656 115.568 25.427 115.932 25.7448L115.729 26.0833L116.37 26.276C117.453 26.0885 117.031 27.2031 117.094 27.5C117.193 27.9687 117.375 27.9948 117.37 28.5833C117.979 28.9375 118.172 30.026 118.5 30.625C118.86 31.2916 119.266 31.3437 119.531 32.0416C119.677 32.4323 120.011 33.625 120.276 33.8541C120.698 34.2135 121.24 33.6406 121.985 33.7812L122.13 28.6145C122.141 28.276 122.13 26.7708 122.255 26.5729C122.401 26.3385 122.891 26.3333 123.151 26.2708C123.797 26.1198 125.438 25.6562 125.615 24.9583C125.656 24.7916 125.636 24.6145 125.599 24.4531C125.349 23.3281 124.662 23.6458 123.818 23.4114C123.464 23.9479 122.771 24.0885 122.177 24.2187C122.182 23.4531 121.969 21.5364 122.49 21.0104Z" fill="#FDC506"/>
</g>
</g>
</g>
<mask id="mask3_404_601" style="mask-type:luminance" maskUnits="userSpaceOnUse" x="93" y="6" width="42" height="29">
<path d="M93.3335 6.66663H134.667V34.6666H93.3335V6.66663Z" fill="white"/>
</mask>
<g mask="url(#mask3_404_601)">
<mask id="mask4_404_601" style="mask-type:luminance" maskUnits="userSpaceOnUse" x="92" y="4" width="42" height="34">
<path d="M99.0731 4.00513L133.542 14.3958L126.615 37.3749L92.146 26.9843L99.0731 4.00513Z" fill="white"/>
</mask>
<g mask="url(#mask4_404_601)">
<mask id="mask5_404_601" style="mask-type:luminance" maskUnits="userSpaceOnUse" x="92" y="4" width="42" height="34">
<path d="M133.719 14.4478L99.2503 4.06238L92.3232 27.0415L126.792 37.427L133.719 14.4478Z" fill="white"/>
</mask>
<g mask="url(#mask5_404_601)">
<path d="M122.49 21.0103C123.094 20.4009 124.688 19.9634 125.537 19.6874C127.287 19.1249 129.896 18.2967 131.37 17.2759C131.844 16.9426 132.86 16.0832 133.167 15.6144C133.318 15.3853 133.49 14.9999 133.355 14.7394C133.115 14.2811 132.266 14.1926 131.834 14.0467L131.183 13.8488C129.532 13.4686 127.407 14.2186 125.875 14.7863L124.823 15.1144L121.474 16.2967L119.355 17.0311C119.037 17.1405 118.62 17.3124 118.282 17.2915C117.98 17.2759 117.657 17.0884 117.381 16.9634C117.605 16.8124 117.849 16.6822 117.995 16.4478C118.329 15.8957 118.011 14.9738 117.553 14.7551C117.073 14.5259 115.568 15.0728 115.094 15.2915C114.641 15.4999 114.438 15.6874 113.938 15.479L110.553 13.8124L102.521 9.68215L100.459 8.59881C100.068 8.39048 99.5577 8.10402 99.1046 8.11965C98.6671 8.13527 98.2973 8.34881 97.9588 8.60402L102.282 11.8124L102.079 12.1509L103.532 13.2915L103.329 13.6301C103.558 13.6249 103.683 13.604 103.901 13.7134L105.745 15.203C106.058 15.453 106.396 15.6249 106.386 16.0572C107.25 16.1978 107.105 16.453 107.74 16.8019C108.542 17.2447 108.974 16.8957 109.61 17.9269L109.98 18.0415L109.474 18.3905L109.938 18.828L109.735 19.1665C110.37 19.3176 110.318 19.5103 110.813 19.8957L110.761 20.078L106.865 21.4217C106.542 21.5363 105.495 21.9217 105.214 21.9217C104.86 21.9217 104.396 21.5207 104.105 21.3124L102.204 20.0051C101.933 19.8124 101.506 19.4686 101.183 19.4269C100.855 19.3905 99.964 19.6665 99.8338 19.9947C99.7661 20.1665 99.8338 20.4322 99.8702 20.604L100.214 22.3072L96.8546 20.8697C95.9379 20.4634 95.3702 19.9999 94.4275 20.6665C94.8859 21.0103 95.1359 21.0415 95.4484 21.5728L96.7244 22.6301L99.7765 25.0832L98.9848 26.0467C99.2973 26.2447 99.5161 26.3332 99.8859 26.3697C100.151 26.4009 100.526 26.3384 100.745 26.4999C100.907 26.6197 101.245 27.1926 101.37 27.3957L102.584 29.3228C102.844 29.729 103.063 30.2707 103.62 30.1926C104.443 30.0728 104.334 29.6405 104.375 28.9738L104.563 26.4269C104.657 25.9009 104.964 25.9217 105.422 25.8697L107.714 25.5467C108.417 25.4217 109.516 25.1665 110.188 24.9426C111.224 24.604 111.787 24.2811 112.896 24.229C113.23 24.2134 114.084 24.0676 114.318 24.1613C114.589 24.2655 115.568 25.4269 115.933 25.7447L115.73 26.0832L116.37 26.2759C117.454 26.0884 117.032 27.203 117.094 27.4999C117.193 27.9686 117.375 27.9947 117.37 28.5832C117.98 28.9374 118.172 30.0259 118.5 30.6249C118.86 31.2915 119.266 31.3436 119.532 32.0415C119.678 32.4322 120.011 33.6249 120.276 33.854C120.698 34.2134 121.24 33.6405 121.985 33.7811L122.131 28.6145C122.141 28.2759 122.131 26.7707 122.256 26.5728C122.401 26.3384 122.891 26.3332 123.151 26.2707C123.797 26.1197 125.438 25.6561 125.615 24.9582C125.657 24.7915 125.636 24.6144 125.599 24.453C125.349 23.328 124.662 23.6457 123.818 23.4113C123.464 23.9478 122.771 24.0884 122.178 24.2186C122.183 23.453 121.969 21.5363 122.49 21.0103Z" stroke="black" stroke-width="0.0957079"/>
</g>
</g>
</g>
<path d="M33.6927 119.437L38.0312 116.906C38.151 116.839 38.276 116.818 38.4114 116.854C38.5416 116.891 38.6458 116.969 38.7135 117.083C38.7864 117.203 38.8021 117.333 38.7656 117.464C38.7291 117.599 38.6562 117.703 38.5364 117.771L34.1979 120.302C34.0781 120.375 33.9479 120.391 33.8177 120.354C33.6823 120.323 33.5833 120.245 33.5104 120.125C33.4427 120.005 33.4271 119.88 33.4583 119.745C33.4948 119.609 33.5729 119.51 33.6927 119.437ZM39.7656 115.896L44.0989 113.359C44.2187 113.292 44.3489 113.276 44.4844 113.307C44.6146 113.344 44.7187 113.422 44.7864 113.542C44.8594 113.661 44.875 113.786 44.8385 113.922C44.8021 114.052 44.7239 114.156 44.6041 114.224L40.2708 116.76C40.151 116.828 40.0208 116.844 39.8906 116.812C39.7552 116.776 39.651 116.698 39.5833 116.578C39.5156 116.458 39.4948 116.333 39.5312 116.198C39.5677 116.068 39.6458 115.964 39.7656 115.896ZM45.8385 112.349L50.1719 109.818C50.2916 109.745 50.4219 109.729 50.5521 109.766C50.6875 109.797 50.7916 109.875 50.8594 109.995C50.9271 110.115 50.9479 110.24 50.9114 110.375C50.875 110.51 50.7969 110.609 50.6771 110.682L46.3385 113.214C46.2187 113.281 46.0937 113.302 45.9583 113.266C45.8281 113.229 45.7239 113.151 45.6562 113.036C45.5833 112.917 45.5677 112.786 45.6041 112.656C45.6406 112.521 45.7187 112.417 45.8385 112.349ZM51.9062 108.802L56.2448 106.271C56.3646 106.203 56.4896 106.182 56.625 106.219C56.7604 106.255 56.8593 106.328 56.9323 106.448C57 106.568 57.0156 106.693 56.9844 106.828C56.9479 106.964 56.8698 107.062 56.75 107.135L52.4114 109.667C52.2916 109.734 52.1666 109.755 52.0312 109.719C51.8958 109.682 51.7969 109.609 51.7239 109.49C51.6562 109.37 51.6406 109.245 51.6771 109.109C51.7083 108.974 51.7864 108.875 51.9062 108.802ZM57.9791 105.26L62.3177 102.724C62.4375 102.656 62.5625 102.641 62.6979 102.672C62.8333 102.708 62.9323 102.786 63.0052 102.906C63.0729 103.021 63.0885 103.151 63.0521 103.281C63.0208 103.417 62.9427 103.521 62.8229 103.589L58.4844 106.12C58.3646 106.193 58.2396 106.208 58.1041 106.172C57.9687 106.141 57.8698 106.062 57.7969 105.943C57.7291 105.823 57.7135 105.698 57.7448 105.562C57.7812 105.432 57.8593 105.328 57.9791 105.26ZM64.0521 101.714L68.3906 99.1823C68.5104 99.1093 68.6354 99.0937 68.7708 99.125C68.901 99.1614 69.0052 99.2396 69.0729 99.3593C69.1458 99.4791 69.1614 99.6041 69.125 99.7396C69.0885 99.8698 69.0104 99.9739 68.8906 100.042L64.5573 102.578C64.4375 102.646 64.3073 102.661 64.1771 102.63C64.0416 102.594 63.9375 102.516 63.8698 102.396C63.8021 102.276 63.7812 102.151 63.8177 102.016C63.8541 101.885 63.9323 101.781 64.0521 101.714ZM70.125 98.1666L74.4583 95.6354C74.5781 95.5625 74.7083 95.5468 74.8385 95.5833C74.9739 95.6146 75.0781 95.6927 75.1458 95.8125C75.2135 95.9323 75.2343 96.0573 75.1979 96.1927C75.1614 96.3281 75.0833 96.4271 74.9635 96.5L70.6302 99.0312C70.5104 99.0989 70.3802 99.1198 70.2448 99.0833C70.1146 99.0468 70.0104 98.9739 69.9427 98.8541C69.8698 98.7343 69.8541 98.6041 69.8906 98.4739C69.9271 98.3385 70.0052 98.2396 70.125 98.1666ZM76.1927 94.6198L78.6094 93.2135C78.7291 93.1458 78.8541 93.125 78.9896 93.1614C79.1198 93.1979 79.2239 93.2708 79.2916 93.3906C79.3646 93.5104 79.3802 93.6354 79.3437 93.7708C79.3073 93.9062 79.2291 94.0052 79.1094 94.0781L76.6979 95.4843C76.5781 95.5573 76.4531 95.5729 76.3177 95.5364C76.1875 95.5052 76.0833 95.4271 76.0156 95.3073C75.9427 95.1875 75.9271 95.0625 75.9635 94.9271C76 94.7916 76.0729 94.6927 76.1927 94.6198Z" fill="#D9D9D9"/>
<path d="M51.922 56.5833L56.6095 58.4479C56.7397 58.5 56.8334 58.5885 56.8855 58.7135C56.9428 58.8437 56.9428 58.9687 56.8907 59.0989C56.8438 59.2291 56.7501 59.3177 56.6251 59.3698C56.5001 59.4271 56.3699 59.4271 56.2397 59.375L51.5574 57.5156C51.4272 57.4635 51.3334 57.375 51.2761 57.2448C51.2241 57.1198 51.2188 56.9896 51.2709 56.8646C51.323 56.7343 51.4116 56.6458 51.5366 56.5885C51.6668 56.5364 51.797 56.5312 51.922 56.5833ZM58.4845 59.1927L63.1668 61.0573C63.297 61.1041 63.3907 61.1979 63.4428 61.3229C63.5001 61.4479 63.5001 61.5781 63.4532 61.7083C63.4011 61.8333 63.3126 61.9271 63.1824 61.9791C63.0574 62.0364 62.9272 62.0364 62.797 61.9844L58.1147 60.1198C57.9845 60.0677 57.8907 59.9791 57.8386 59.8541C57.7813 59.7291 57.7813 59.5989 57.8282 59.4687C57.8803 59.3437 57.9688 59.25 58.0991 59.1979C58.2241 59.1406 58.3543 59.1406 58.4845 59.1927ZM65.0418 61.8021L69.7241 63.6614C69.8543 63.7135 69.948 63.8021 70.0053 63.9323C70.0574 64.0573 70.0626 64.1875 70.0105 64.3125C69.9584 64.4427 69.8699 64.5312 69.7449 64.5885C69.6147 64.6406 69.4845 64.6406 69.3595 64.5937L64.672 62.7291C64.5418 62.6771 64.4532 62.5885 64.3959 62.4635C64.3386 62.3333 64.3386 62.2083 64.3907 62.0781C64.4376 61.9479 64.5313 61.8594 64.6563 61.8021C64.7866 61.75 64.9116 61.75 65.0418 61.8021ZM71.5991 64.4062L76.2866 66.2708C76.4168 66.3229 76.5053 66.4114 76.5626 66.5364C76.6199 66.6666 76.6199 66.7916 76.5678 66.9219C76.5157 67.0469 76.4272 67.1406 76.3022 67.1927C76.172 67.25 76.047 67.25 75.9168 67.1979L71.2293 65.3385C71.1043 65.2864 71.0105 65.1979 70.9532 65.0677C70.9011 64.9427 70.8959 64.8125 70.948 64.6875C71.0001 64.5573 71.0886 64.4687 71.2136 64.4114C71.3438 64.3593 71.4688 64.3541 71.5991 64.4062ZM78.1616 67.0156L82.8438 68.875C82.9741 68.9271 83.0678 69.0156 83.1199 69.1458C83.1772 69.2708 83.1772 69.401 83.1303 69.526C83.0782 69.6562 82.9897 69.75 82.8595 69.8021C82.7345 69.8541 82.6043 69.8593 82.4741 69.8073L77.7918 67.9427C77.6616 67.8906 77.5678 67.8021 77.5105 67.6771C77.4584 67.5469 77.4532 67.4218 77.5053 67.2916C77.5574 67.1666 77.6459 67.0729 77.7761 67.0208C77.9011 66.9635 78.0313 66.9635 78.1616 67.0156ZM84.7188 69.625L86.3022 70.25C86.4324 70.3021 86.5209 70.3906 86.5782 70.5208C86.6355 70.6458 86.6355 70.776 86.5834 70.901C86.5366 71.0312 86.4428 71.125 86.3178 71.1771C86.1876 71.2291 86.0626 71.2343 85.9324 71.1823L84.3491 70.5521C84.2188 70.5 84.1251 70.4114 84.073 70.2864C84.0157 70.1562 84.0157 70.0312 84.0626 69.901C84.1147 69.7708 84.2032 69.6823 84.3334 69.625C84.4584 69.5729 84.5886 69.5729 84.7188 69.625Z" fill="#D9D9D9"/>
<path d="M51.38 36.3594L56.2967 35.1458C56.4321 35.1146 56.5623 35.1302 56.6769 35.2031C56.7967 35.2708 56.8748 35.375 56.9061 35.5104C56.9425 35.6458 56.9217 35.7708 56.8488 35.8906C56.7759 36.0052 56.6717 36.0833 56.5363 36.1146L51.6196 37.3333C51.4842 37.3646 51.3592 37.3438 51.2394 37.2761C51.1196 37.2031 51.0415 37.099 51.0102 36.9688C50.9738 36.8333 50.9946 36.7083 51.0675 36.5886C51.1405 36.4688 51.2446 36.3958 51.38 36.3594ZM58.2655 34.6615L63.1821 33.4427C63.3175 33.4115 63.4425 33.4323 63.5623 33.5C63.6821 33.5729 63.7602 33.6771 63.7915 33.8073C63.8227 33.9427 63.8071 34.0677 63.7342 34.1875C63.6613 34.3073 63.5571 34.3802 63.4217 34.4167L58.505 35.6302C58.3696 35.6667 58.2394 35.6458 58.1196 35.5729C57.9998 35.5052 57.9269 35.4011 57.8905 35.2656C57.8592 35.1302 57.88 35.0052 57.953 34.8854C58.0259 34.7708 58.13 34.6927 58.2655 34.6615ZM65.1457 32.9583L70.0623 31.7448C70.1977 31.7083 70.328 31.7292 70.4477 31.8021C70.5623 31.8698 70.6405 31.974 70.6717 32.1094C70.7082 32.2448 70.6873 32.3698 70.6144 32.4896C70.5415 32.6042 70.4373 32.6823 70.3019 32.7136L65.3852 33.9323C65.2498 33.9636 65.1248 33.9427 65.005 33.875C64.8852 33.8021 64.8071 33.6979 64.7759 33.5677C64.7394 33.4323 64.7602 33.3073 64.8332 33.1875C64.9061 33.0677 65.0102 32.9948 65.1457 32.9583ZM72.0311 31.2604L76.9477 30.0417C77.0832 30.0104 77.2082 30.0313 77.328 30.099C77.4477 30.1719 77.5259 30.2761 77.5571 30.4063C77.5884 30.5417 77.5727 30.6667 77.4998 30.7865C77.4269 30.9063 77.3227 30.9792 77.1873 31.0156L72.2707 32.2292C72.1352 32.2604 72.005 32.2448 71.8852 32.1719C71.7655 32.1042 71.6925 32 71.6561 31.8646C71.6248 31.7292 71.6457 31.6042 71.7186 31.4844C71.7915 31.3698 71.8957 31.2917 72.0311 31.2604ZM78.9113 29.5573L83.828 28.3438C83.9634 28.3073 84.0936 28.3281 84.2134 28.4011C84.328 28.4688 84.4061 28.5729 84.4373 28.7083C84.4738 28.8438 84.453 28.9688 84.38 29.0886C84.3071 29.2031 84.203 29.2813 84.0675 29.3125L79.1509 30.5313C79.0155 30.5625 78.8905 30.5417 78.7707 30.474C78.6509 30.4011 78.5727 30.2969 78.5415 30.1667C78.505 30.0313 78.5259 29.9063 78.5988 29.7865C78.6717 29.6667 78.7759 29.5938 78.9113 29.5573ZM85.7967 27.8594L86.3227 27.7292C86.4582 27.6927 86.5884 27.7136 86.703 27.7813C86.8227 27.8542 86.9009 27.9583 86.9321 28.0886C86.9686 28.224 86.9477 28.349 86.8748 28.4688C86.8019 28.5886 86.6977 28.6667 86.5623 28.6979L86.0363 28.8281C85.9009 28.8594 85.7707 28.8438 85.6509 28.7708C85.5311 28.7031 85.4582 28.599 85.4217 28.4636C85.3905 28.3281 85.4113 28.2031 85.4842 28.0833C85.5571 27.9688 85.6613 27.8906 85.7967 27.8594Z" fill="#D9D9D9"/>
<mask id="mask6_404_601" style="mask-type:luminance" maskUnits="userSpaceOnUse" x="25" y="28" width="102" height="120">
<path d="M25 28H126.333V147.083H25V28Z" fill="white"/>
</mask>
<g mask="url(#mask6_404_601)">
<path d="M121.573 52.9375C119.021 45.8698 115.292 39.5937 110.693 34.25L116.542 28.4948L49.1665 48.5L93.453 66.3125C97.4373 67.9166 100.76 70.8437 102.859 74.6041C107.661 83.2135 105.042 94.0781 96.854 99.5364L25.4946 147.083L61.0103 132.635C70.3384 133.38 79.9894 131.927 89.2186 127.943C117.932 115.542 132.229 82.427 121.573 52.9375Z" fill="#FDC506"/>
</g>
</g>
<defs>
<clipPath id="clip0_404_601">
<rect width="500" height="144" fill="white" transform="translate(-24)"/>
</clipPath>
</defs>
</svg>
